RobotoSerifText-RegularCondItalic 03r.ufo
<glyph name="three" format="2">
  <advance width="462"/>
  <unicode hex="0033"/>
  <outline>
    <contour>
      <point x="238" y="-90" type="curve" smooth="yes"/>
      <point x="123" y="-90.0"/>
      <point x="57" y="-19"/>
      <point x="39" y="94" type="curve"/>
      <point x="92" y="112" type="line"/>
      <point x="110" y="25"/>
      <point x="148.22448979591837" y="-36.0"/>
      <point x="237" y="-36" type="curve" smooth="yes"/>
      <point x="319" y="-36.0"/>
      <point x="364" y="24"/>
      <point x="364" y="121" type="curve" smooth="yes"/>
      <point x="364" y="198"/>
      <point x="337" y="258"/>
      <point x="230" y="258" type="curve" smooth="yes"/>
      <point x="184" y="258" type="line"/>
      <point x="194" y="310" type="line"/>
      <point x="245" y="310" type="line" smooth="yes"/>
      <point x="343" y="310"/>
      <point x="391" y="365"/>
      <point x="391" y="457" type="curve" smooth="yes"/>
      <point x="391" y="523"/>
      <point x="365" y="564.0"/>
      <point x="306" y="564" type="curve" smooth="yes"/>
      <point x="248" y="564.0"/>
      <point x="204.24990830433285" y="532.3075794514866"/>
      <point x="178" y="500" type="curve"/>
      <point x="185" y="526"/>
      <point x="196" y="541"/>
      <point x="220" y="543" type="curve"/>
      <point x="205" y="439" type="line"/>
      <point x="126" y="439" type="line"/>
      <point x="145" y="558" type="line"/>
      <point x="176" y="584"/>
      <point x="233" y="618.0"/>
      <point x="306" y="618" type="curve" smooth="yes"/>
      <point x="412" y="618.0"/>
      <point x="478" y="559"/>
      <point x="478" y="457" type="curve" smooth="yes"/>
      <point x="478" y="354"/>
      <point x="398" y="282"/>
      <point x="281" y="282" type="curve"/>
      <point x="297" y="293" type="line"/>
      <point x="296" y="276" type="line"/>
      <point x="268" y="290" type="line"/>
      <point x="406" y="277"/>
      <point x="451" y="204"/>
      <point x="451" y="114" type="curve" smooth="yes"/>
      <point x="451" y="-18"/>
      <point x="360" y="-90"/>
    </contour>
  </outline>
</glyph>
<glyph name="six" format="2">
  <advance width="462"/>
  <unicode hex="0036"/>
  <outline>
    <contour>
      <point x="485" y="686" type="line"/>
      <point x="342" y="656"/>
      <point x="236" y="549"/>
      <point x="185" y="381" type="curve" smooth="yes"/>
      <point x="166" y="318"/>
      <point x="158" y="265"/>
      <point x="158" y="205" type="curve" smooth="yes"/>
      <point x="158" y="103"/>
      <point x="194" y="44"/>
      <point x="261" y="44" type="curve" smooth="yes"/>
      <point x="305.11764705882354" y="44.0"/>
      <point x="338" y="72"/>
      <point x="359" y="135" type="curve" smooth="yes"/>
      <point x="372" y="173"/>
      <point x="384" y="234"/>
      <point x="384.0" y="287" type="curve" smooth="yes"/>
      <point x="384" y="357"/>
      <point x="360" y="400"/>
      <point x="311" y="400" type="curve" smooth="yes"/>
      <point x="258" y="400"/>
      <point x="198" y="353"/>
      <point x="150" y="266" type="curve"/>
      <point x="144" y="302" type="line"/>
      <point x="183" y="398"/>
      <point x="253" y="454"/>
      <point x="329" y="454" type="curve" smooth="yes"/>
      <point x="418" y="454"/>
      <point x="474" y="378"/>
      <point x="474" y="271" type="curve" smooth="yes"/>
      <point x="474" y="115"/>
      <point x="381" y="-10"/>
      <point x="256" y="-10" type="curve" smooth="yes"/>
      <point x="142" y="-10"/>
      <point x="70" y="75"/>
      <point x="70" y="226" type="curve" smooth="yes"/>
      <point x="70" y="452"/>
      <point x="212" y="697"/>
      <point x="482" y="741" type="curve"/>
    </contour>
  </outline>
</glyph>
<glyph name="seven" format="2">
  <advance width="462"/>
  <unicode hex="0037"/>
  <guideline x="150" y="609.0" angle="80" identifier="HDuVWnyy7n"/>
  <outline>
    <contour>
      <point x="294" y="540.0" type="line" smooth="yes"/>
      <point x="225.0" y="540.0"/>
      <point x="196" y="534"/>
      <point x="186" y="498.0" type="curve" smooth="yes"/>
      <point x="161" y="408.0" type="line"/>
      <point x="115" y="408.0" type="line"/>
      <point x="150" y="609.0" type="line"/>
      <point x="543" y="609.0" type="line"/>
      <point x="529" y="541.0" type="line"/>
      <point x="402" y="375.0"/>
      <point x="300" y="235.0"/>
      <point x="234" y="-77.0" type="curve"/>
      <point x="143" y="-77.0" type="line"/>
      <point x="191" y="195.0"/>
      <point x="359" y="390.0"/>
      <point x="485" y="556.0" type="curve"/>
      <point x="493" y="540.0" type="line"/>
    </contour>
  </outline>
</glyph>
<glyph name="eight" format="2">
  <advance width="462"/>
  <unicode hex="0038"/>
  <outline>
    <contour>
      <point x="235" y="44" type="curve" smooth="yes"/>
      <point x="167" y="44.0"/>
      <point x="136.0" y="87.0"/>
      <point x="136" y="153" type="curve" smooth="yes"/>
      <point x="136.0" y="179.2987012987013"/>
      <point x="140" y="210"/>
      <point x="146" y="234" type="curve" smooth="yes"/>
      <point x="164" y="307"/>
      <point x="209" y="344.0"/>
      <point x="269" y="344.0" type="curve" smooth="yes"/>
      <point x="328" y="344"/>
      <point x="364" y="308"/>
      <point x="364" y="237" type="curve" smooth="yes"/>
      <point x="364" y="213"/>
      <point x="360" y="181"/>
      <point x="354" y="155" type="curve" smooth="yes"/>
      <point x="335.02586558079804" y="77.10618501590774"/>
      <point x="295" y="44.0"/>
    </contour>
    <contour>
      <point x="289" y="396" type="curve" smooth="yes"/>
      <point x="243" y="396"/>
      <point x="217" y="428"/>
      <point x="217" y="488" type="curve" smooth="yes"/>
      <point x="217.0" y="512.1901827761726"/>
      <point x="222.73564707790348" y="543.3104118505657"/>
      <point x="228" y="567" type="curve" smooth="yes"/>
      <point x="246" y="638"/>
      <point x="277" y="666"/>
      <point x="328" y="666" type="curve" smooth="yes"/>
      <point x="376" y="666"/>
      <point x="402" y="629"/>
      <point x="402" y="573" type="curve" smooth="yes"/>
      <point x="402.0" y="553.471231953379"/>
      <point x="398.57950502109344" y="529.6077725949203"/>
      <point x="394" y="509" type="curve" smooth="yes"/>
      <point x="376" y="429"/>
      <point x="346" y="396"/>
    </contour>
    <contour>
      <point x="326" y="720" type="curve" smooth="yes"/>
      <point x="225" y="720"/>
      <point x="156" y="657"/>
      <point x="141" y="546" type="curve" smooth="yes"/>
      <point x="125.72727272727273" y="462.0"/>
      <point x="167.41095890410958" y="385.26027397260276"/>
      <point x="233" y="368" type="curve"/>
      <point x="223" y="380" type="line"/>
      <point x="220" y="362" type="line"/>
      <point x="235" y="378" type="line"/>
      <point x="135" y="368"/>
      <point x="43" y="281"/>
      <point x="43" y="161" type="curve" smooth="yes"/>
      <point x="43" y="61"/>
      <point x="113" y="-10"/>
      <point x="232" y="-10" type="curve" smooth="yes"/>
      <point x="364.0" y="-10.0"/>
      <point x="453.0" y="87"/>
      <point x="453" y="219" type="curve" smooth="yes"/>
      <point x="453.0" y="302"/>
      <point x="412.0698207274135" y="355.9814933011675"/>
      <point x="329" y="378" type="curve"/>
      <point x="338" y="362" type="line"/>
      <point x="341" y="380" type="line"/>
      <point x="327" y="368" type="line"/>
      <point x="412.93885502786674" y="385.4053377271629"/>
      <point x="488" y="449"/>
      <point x="488" y="572" type="curve" smooth="yes"/>
      <point x="488" y="658"/>
      <point x="428" y="720"/>
    </contour>
  </outline>
</glyph>
<glyph name="G" format="2">
  <advance width="567"/>
  <unicode hex="0047"/>
  <guideline x="577" y="508" angle="80" identifier="JSDWktSJfU"/>
  <guideline x="424" y="86" angle="80" identifier="wf95FiS6Qr"/>
  <anchor x="418" y="741" name="top"/>
  <anchor x="371" y="0" name="bottom"/>
  <outline>
    <contour>
      <point x="428" y="91" type="curve"/>
      <point x="459" y="271" type="line" smooth="yes"/>
      <point x="465" y="303"/>
      <point x="439" y="309"/>
      <point x="401" y="309" type="curve"/>
      <point x="391" y="309" type="line"/>
      <point x="401" y="353" type="line"/>
      <point x="622" y="353" type="line"/>
      <point x="612" y="309" type="line"/>
      <point x="607" y="309" type="line" smooth="yes"/>
      <point x="575" y="309"/>
      <point x="550" y="302"/>
      <point x="545" y="273" type="curve" smooth="yes"/>
      <point x="510" y="76" type="line"/>
      <point x="460" y="26"/>
      <point x="387" y="-10"/>
      <point x="309" y="-10" type="curve" smooth="yes"/>
      <point x="169" y="-10"/>
      <point x="90" y="79"/>
      <point x="90" y="265" type="curve" smooth="yes"/>
      <point x="90" y="545"/>
      <point x="229" y="720"/>
      <point x="386" y="720.0" type="curve" smooth="yes"/>
      <point x="476" y="720"/>
      <point x="536" y="681"/>
      <point x="549" y="555" type="curve"/>
      <point x="525" y="552" type="line"/>
      <point x="564" y="710" type="line"/>
      <point x="615" y="710" type="line"/>
      <point x="580" y="509" type="line"/>
      <point x="516" y="509" type="line"/>
      <point x="505" y="609"/>
      <point x="453" y="666"/>
      <point x="379" y="666.0" type="curve" smooth="yes"/>
      <point x="268" y="666.0"/>
      <point x="179" y="455"/>
      <point x="179" y="270" type="curve" smooth="yes"/>
      <point x="179" y="118"/>
      <point x="216" y="44"/>
      <point x="312" y="44" type="curve" smooth="yes"/>
      <point x="361" y="44"/>
      <point x="400" y="58"/>
    </contour>
  </outline>
</glyph>
<glyph name="H" format="2">
  <advance width="645"/>
  <unicode hex="0048"/>
  <guideline x="314" y="656" angle="80" identifier="myU4xLQUiJ"/>
  <guideline x="35" y="0" angle="80" identifier="zXbG3SOS8E"/>
  <guideline x="276" y="0" angle="80" identifier="EG1cc9Nttn"/>
  <guideline x="568" y="-8" angle="0" identifier="88Kp2QwQD8"/>
  <anchor x="374" y="741" name="top"/>
  <anchor x="374" y="0" name="bottom"/>
  <outline>
    <contour>
      <point x="209" y="392" type="line"/>
      <point x="200" y="339" type="line"/>
      <point x="543" y="339" type="line"/>
      <point x="551" y="392" type="line"/>
    </contour>
    <contour>
      <point x="23" y="0" type="line"/>
      <point x="259" y="0" type="line"/>
      <point x="267" y="44" type="line"/>
      <point x="260" y="44" type="line" smooth="yes"/>
      <point x="232" y="44"/>
      <point x="195" y="47"/>
      <point x="196" y="54" type="curve" smooth="yes"/>
      <point x="302" y="656" type="line" smooth="yes"/>
      <point x="303" y="663"/>
      <point x="338" y="666"/>
      <point x="366" y="666" type="curve" smooth="yes"/>
      <point x="376" y="666" type="line"/>
      <point x="384" y="710" type="line"/>
      <point x="148" y="710" type="line"/>
      <point x="140" y="666" type="line"/>
      <point x="156" y="666.0" type="line" smooth="yes"/>
      <point x="199" y="666.0"/>
      <point x="212" y="658"/>
      <point x="207" y="627" type="curve" smooth="yes"/>
      <point x="111" y="80" type="line" smooth="yes"/>
      <point x="107" y="55"/>
      <point x="87.0" y="44.0"/>
      <point x="45" y="44" type="curve" smooth="yes"/>
      <point x="31" y="44" type="line"/>
    </contour>
    <contour>
      <point x="747" y="710" type="line"/>
      <point x="511" y="710" type="line"/>
      <point x="503" y="666" type="line"/>
      <point x="510" y="666" type="line" smooth="yes"/>
      <point x="537.8260869565217" y="666"/>
      <point x="575.2244941915278" y="662.9542028613187"/>
      <point x="574" y="656" type="curve" smooth="yes"/>
      <point x="468" y="54" type="line" smooth="yes"/>
      <point x="466.77550580847213" y="47.04579713868137"/>
      <point x="431.82608695652175" y="44"/>
      <point x="404" y="44" type="curve" smooth="yes"/>
      <point x="394" y="44" type="line"/>
      <point x="386" y="0" type="line"/>
      <point x="622" y="0" type="line"/>
      <point x="630" y="44" type="line"/>
      <point x="614" y="44.0" type="line" smooth="yes"/>
      <point x="570" y="44"/>
      <point x="558" y="52"/>
      <point x="563" y="83" type="curve" smooth="yes"/>
      <point x="659" y="630" type="line" smooth="yes"/>
      <point x="663" y="655"/>
      <point x="683" y="666.0"/>
      <point x="725" y="666" type="curve" smooth="yes"/>
      <point x="739" y="666" type="line"/>
    </contour>
  </outline>
</glyph>
<glyph name="grave" format="2">
  <advance width="412"/>
  <unicode hex="0060"/>
  <anchor x="221" y="531" name="_top"/>
  <outline>
    <contour>
      <point x="254" y="698" type="curve" smooth="yes"/>
      <point x="286" y="587" type="line"/>
      <point x="286" y="568" type="line"/>
      <point x="258" y="568" type="line"/>
      <point x="188" y="663" type="line" smooth="yes"/>
      <point x="169" y="682"/>
      <point x="158" y="698"/>
      <point x="158" y="717" type="curve" smooth="yes"/>
      <point x="158" y="739"/>
      <point x="174" y="756"/>
      <point x="199" y="756" type="curve" smooth="yes"/>
      <point x="226" y="756"/>
      <point x="239" y="740"/>
    </contour>
  </outline>
</glyph>
<glyph name="k" format="2">
  <advance width="459"/>
  <unicode hex="006B"/>
  <anchor x="273" y="0" name="bottom"/>
  <outline>
    <contour>
      <point x="365" y="129.0" type="line" smooth="yes"/>
      <point x="381" y="69"/>
      <point x="393.0" y="55"/>
      <point x="420" y="55.0" type="curve" smooth="yes"/>
      <point x="442" y="55"/>
      <point x="461" y="63.0"/>
      <point x="474" y="71.0" type="curve"/>
      <point x="465" y="21.0" type="line"/>
      <point x="446" y="3"/>
      <point x="419.0" y="-7.0"/>
      <point x="390" y="-7.0" type="curve" smooth="yes"/>
      <point x="337" y="-7.0"/>
      <point x="304" y="32"/>
      <point x="285" y="109" type="curve" smooth="yes"/>
      <point x="241" y="287.0" type="line"/>
      <point x="241" y="292.0" type="line"/>
      <point x="306" y="364.0"/>
      <point x="370" y="436.0"/>
      <point x="434" y="508.0" type="curve"/>
      <point x="514" y="508.0" type="line"/>
      <point x="514" y="498.0" type="line"/>
      <point x="433" y="419.0"/>
      <point x="353" y="340.0"/>
      <point x="272" y="261.0" type="curve"/>
      <point x="315" y="311.0" type="line"/>
    </contour>
    <contour>
      <point x="78.0" y="0.0" type="line"/>
      <point x="191" y="646.0" type="line" smooth="yes"/>
      <point x="196" y="676"/>
      <point x="177.78561112941682" y="682.1587530823518"/>
      <point x="138" y="691.0" type="curve" smooth="yes"/>
      <point x="129" y="693.0" type="line"/>
      <point x="137" y="735.0" type="line"/>
      <point x="292" y="735.0" type="line"/>
      <point x="164.0" y="0.0" type="line"/>
    </contour>
  </outline>
</glyph>
<glyph name="w" format="2">
  <advance width="645"/>
  <unicode hex="0077"/>
  <anchor x="384.9822715750113" y="508" name="top"/>
  <outline>
    <contour>
      <point x="387" y="508" type="line"/>
      <point x="324" y="351"/>
      <point x="260" y="193"/>
      <point x="198" y="36" type="curve"/>
      <point x="217" y="31" type="line"/>
      <point x="213" y="508" type="line"/>
      <point x="84" y="508" type="line"/>
      <point x="77" y="466" type="line"/>
      <point x="85" y="464" type="line" smooth="yes"/>
      <point x="120" y="455"/>
      <point x="137" y="448"/>
      <point x="137" y="419" type="curve" smooth="yes"/>
      <point x="146" y="0" type="line"/>
      <point x="230" y="0" type="line"/>
      <point x="290" y="147"/>
      <point x="348" y="292"/>
      <point x="408" y="439" type="curve"/>
      <point x="387" y="425" type="line"/>
      <point x="410" y="0" type="line"/>
      <point x="493" y="0" type="line"/>
      <point x="563" y="166"/>
      <point x="635" y="333"/>
      <point x="707" y="499" type="curve"/>
      <point x="707" y="508" type="line"/>
      <point x="632" y="508" type="line"/>
      <point x="576" y="351"/>
      <point x="520" y="194"/>
      <point x="464" y="36" type="curve"/>
      <point x="480" y="30" type="line"/>
      <point x="455" y="508" type="line"/>
    </contour>
  </outline>
</glyph>
<glyph name="ogonek" format="2">
  <advance width="495"/>
  <unicode hex="02DB"/>
  <anchor x="339" y="9" name="_right"/>
  <outline>
    <contour>
      <point x="415" y="32" type="line"/>
      <point x="295" y="-30"/>
      <point x="234" y="-78"/>
      <point x="234" y="-149" type="curve" smooth="yes"/>
      <point x="234" y="-204"/>
      <point x="273" y="-235"/>
      <point x="325" y="-235" type="curve" smooth="yes"/>
      <point x="365" y="-235"/>
      <point x="393" y="-215"/>
      <point x="412" y="-190" type="curve"/>
      <point x="392" y="-157" type="line"/>
      <point x="380" y="-173"/>
      <point x="365" y="-188"/>
      <point x="347" y="-188" type="curve" smooth="yes"/>
      <point x="329" y="-188"/>
      <point x="318" y="-174"/>
      <point x="318" y="-145" type="curve" smooth="yes"/>
      <point x="318" y="-99"/>
      <point x="339" y="-51"/>
      <point x="435" y="8" type="curve"/>
    </contour>
  </outline>
</glyph>
<glyph name="tilde" format="2">
  <advance width="412"/>
  <unicode hex="02DC"/>
  <anchor x="246" y="516" name="_top"/>
  <outline>
    <contour>
      <point x="323" y="599" type="curve" smooth="yes"/>
      <point x="366" y="599"/>
      <point x="399" y="635"/>
      <point x="419" y="713" type="curve"/>
      <point x="377" y="734" type="line"/>
      <point x="365" y="687"/>
      <point x="354" y="660"/>
      <point x="333" y="660" type="curve" smooth="yes"/>
      <point x="302" y="660"/>
      <point x="285" y="731"/>
      <point x="227" y="731" type="curve" smooth="yes"/>
      <point x="180" y="731"/>
      <point x="150" y="697"/>
      <point x="133" y="616" type="curve"/>
      <point x="175" y="596" type="line"/>
      <point x="186" y="646"/>
      <point x="197" y="671"/>
      <point x="217" y="671" type="curve" smooth="yes"/>
      <point x="246" y="671"/>
      <point x="259" y="599"/>
    </contour>
  </outline>
</glyph>
<glyph name="." format="2">
  <outline>
    <contour>
      <point x="-39" y="-223" type="line"/>
      <point x="-38" y="-223" type="line"/>
      <point x="130" y="736" type="line"/>
      <point x="129" y="736" type="line"/>
    </contour>
  </outline>
</glyph>
<glyph name="backslash.uc" format="2">
  <advance width="353"/>
  <outline>
    <contour>
      <point x="161" y="749" type="line"/>
      <point x="327" y="-38" type="line"/>
      <point x="264" y="-38" type="line"/>
      <point x="98" y="749" type="line"/>
    </contour>
  </outline>
</glyph>
<glyph name="blacktriangle" format="2">
  <advance width="472"/>
  <outline>
    <contour>
      <point x="152" y="40" type="line"/>
      <point x="460" y="307" type="line"/>
      <point x="152" y="575" type="line"/>
    </contour>
  </outline>
</glyph>
<glyph name="breve_tilde" format="2">
  <advance width="412"/>
  <anchor x="245" y="524" name="_top"/>
  <outline>
    <contour>
      <point x="328" y="767" type="curve" smooth="yes"/>
      <point x="371" y="767"/>
      <point x="405" y="799"/>
      <point x="423" y="873" type="curve"/>
      <point x="381" y="894" type="line"/>
      <point x="370" y="853"/>
      <point x="358" y="828"/>
      <point x="338" y="828" type="curve" smooth="yes"/>
      <point x="306" y="828"/>
      <point x="288" y="891"/>
      <point x="232" y="891" type="curve" smooth="yes"/>
      <point x="187" y="891"/>
      <point x="156" y="860"/>
      <point x="140" y="785" type="curve"/>
      <point x="182" y="765" type="line"/>
      <point x="191" y="810"/>
      <point x="204" y="831"/>
      <point x="223" y="831" type="curve" smooth="yes"/>
      <point x="252" y="831"/>
      <point x="267" y="767"/>
    </contour>
    <contour>
      <point x="264" y="582" type="curve" smooth="yes"/>
      <point x="329" y="582"/>
      <point x="380" y="621"/>
      <point x="392" y="720" type="curve"/>
      <point x="341" y="720" type="line"/>
      <point x="330" y="669"/>
      <point x="311" y="645"/>
      <point x="268" y="645" type="curve" smooth="yes"/>
      <point x="219" y="645"/>
      <point x="207" y="675"/>
      <point x="210" y="720" type="curve"/>
      <point x="157" y="720" type="line"/>
      <point x="156" y="716"/>
      <point x="155" y="708"/>
      <point x="155" y="701" type="curve" smooth="yes"/>
      <point x="155" y="631"/>
      <point x="192" y="582"/>
    </contour>
  </outline>
</glyph>
<glyph name="circumflex_acute" format="2">
  <advance width="420"/>
  <anchor x="221" y="558" name="_top"/>
  <outline>
    <contour>
      <point x="432" y="822" type="curve" smooth="yes"/>
      <point x="383" y="708" type="line"/>
      <point x="381" y="689" type="line"/>
      <point x="409" y="689" type="line"/>
      <point x="486" y="777" type="line" smooth="yes"/>
      <point x="509" y="799"/>
      <point x="525" y="814"/>
      <point x="525" y="837" type="curve" smooth="yes"/>
      <point x="525" y="856"/>
      <point x="509" y="873"/>
      <point x="487" y="873" type="curve" smooth="yes"/>
      <point x="462" y="873"/>
      <point x="448" y="857"/>
    </contour>
    <component base="circumflex" xOffset="-8"/>
  </outline>
</glyph>
<glyph name="circumflex_grave.uc" format="2">
  <advance width="420"/>
  <anchor x="234" y="696" name="_top"/>
  <outline>
    <contour>
      <point x="459" y="951" type="line" smooth="yes"/>
      <point x="446" y="980"/>
      <point x="432" y="993"/>
      <point x="410" y="993" type="curve" smooth="yes"/>
      <point x="385" y="993"/>
      <point x="370" y="976"/>
      <point x="370" y="954" type="curve" smooth="yes"/>
      <point x="370" y="930"/>
      <point x="387" y="915"/>
      <point x="416" y="895" type="curve" smooth="yes"/>
      <point x="469" y="848" type="line"/>
      <point x="496" y="848" type="line"/>
      <point x="496" y="867" type="line"/>
    </contour>
    <component base="circumflex.uc"/>
  </outline>
</glyph>
<glyph name="e.italic" format="2">
  <advance width="452"/>
  <outline>
    <contour>
      <point x="296" y="-10" type="curve" smooth="yes"/>
      <point x="381" y="-10"/>
      <point x="433" y="42"/>
      <point x="464" y="107" type="curve"/>
      <point x="425" y="149" type="line"/>
      <point x="402" y="103"/>
      <point x="365" y="47"/>
      <point x="297" y="47" type="curve" smooth="yes"/>
      <point x="217" y="47"/>
      <point x="158" y="121"/>
      <point x="158" y="250" type="curve" smooth="yes"/>
      <point x="158" y="380"/>
      <point x="212" y="461"/>
      <point x="281" y="461" type="curve" smooth="yes"/>
      <point x="353" y="461"/>
      <point x="386" y="398"/>
      <point x="388" y="265" type="curve"/>
      <point x="411" y="287" type="line"/>
      <point x="143" y="287" type="line"/>
      <point x="143" y="231" type="line"/>
      <point x="466" y="231" type="line"/>
      <point x="465" y="423"/>
      <point x="401" y="518"/>
      <point x="281" y="518" type="curve" smooth="yes"/>
      <point x="170" y="518"/>
      <point x="83" y="409"/>
      <point x="83" y="252" type="curve" smooth="yes"/>
      <point x="83" y="92"/>
      <point x="176" y="-10"/>
    </contour>
  </outline>
</glyph>
<glyph name="n.italic" format="2">
  <advance width="532"/>
  <outline>
    <contour>
      <point x="38" y="0" type="line"/>
      <point x="243" y="0" type="line"/>
      <point x="250" y="45" type="line"/>
      <point x="247" y="45" type="line" smooth="yes"/>
      <point x="224" y="45"/>
      <point x="189" y="48"/>
      <point x="190" y="55" type="curve" smooth="yes"/>
      <point x="238" y="391" type="line"/>
      <point x="229" y="376" type="line"/>
      <point x="248" y="508" type="line"/>
      <point x="112" y="508" type="line"/>
      <point x="106" y="462" type="line"/>
      <point x="113" y="460" type="line" smooth="yes"/>
      <point x="154" y="450"/>
      <point x="173" y="444"/>
      <point x="169" y="415" type="curve" smooth="yes"/>
      <point x="120" y="81" type="line" smooth="yes"/>
      <point x="116" y="52"/>
      <point x="86" y="45"/>
      <point x="46" y="45" type="curve" smooth="yes"/>
      <point x="45" y="45" type="line"/>
    </contour>
    <contour>
      <point x="498" y="325" type="line" smooth="yes"/>
      <point x="503" y="357"/>
      <point x="506" y="383"/>
      <point x="506" y="401" type="curve" smooth="yes"/>
      <point x="506" y="475"/>
      <point x="464" y="518"/>
      <point x="401" y="518" type="curve" smooth="yes"/>
      <point x="313" y="518"/>
      <point x="251" y="438"/>
      <point x="187" y="315" type="curve"/>
      <point x="206" y="290" type="line"/>
      <point x="269" y="402"/>
      <point x="324" y="455"/>
      <point x="381" y="455" type="curve" smooth="yes"/>
      <point x="418" y="455"/>
      <point x="433" y="431"/>
      <point x="433" y="392" type="curve" smooth="yes"/>
      <point x="433" y="376"/>
      <point x="429" y="355"/>
      <point x="424" y="321" type="curve" smooth="yes"/>
      <point x="385" y="55" type="line" smooth="yes"/>
      <point x="384" y="48"/>
      <point x="347" y="45"/>
      <point x="324" y="45" type="curve" smooth="yes"/>
      <point x="322" y="45" type="line"/>
      <point x="316" y="0" type="line"/>
      <point x="520" y="0" type="line"/>
      <point x="527" y="45" type="line"/>
      <point x="525" y="45" type="line" smooth="yes"/>
      <point x="485" y="45"/>
      <point x="459" y="52"/>
      <point x="463" y="81" type="curve" smooth="yes"/>
    </contour>
  </outline>
</glyph>
<glyph name="v.italic" format="2">
  <advance width="477"/>
  <outline>
    <contour>
      <point x="412" y="442" type="curve"/>
      <point x="292" y="55" type="line"/>
      <point x="301" y="57" type="line"/>
      <point x="177" y="454" type="line"/>
      <point x="177" y="461"/>
      <point x="214" y="463"/>
      <point x="250" y="463" type="curve" smooth="yes"/>
      <point x="251" y="463" type="line"/>
      <point x="251" y="508" type="line"/>
      <point x="49" y="508" type="line"/>
      <point x="49" y="463" type="line"/>
      <point x="51" y="463" type="line" smooth="yes"/>
      <point x="82" y="463"/>
      <point x="102" y="456"/>
      <point x="111" y="429" type="curve" smooth="yes"/>
      <point x="248" y="0" type="line"/>
      <point x="324" y="0" type="line"/>
      <point x="456" y="421" type="line" smooth="yes"/>
      <point x="467" y="455"/>
      <point x="492" y="463"/>
      <point x="516" y="463" type="curve"/>
      <point x="518" y="463" type="line"/>
      <point x="518" y="508" type="line"/>
      <point x="342" y="508" type="line"/>
      <point x="342" y="463" type="line"/>
      <point x="343" y="463" type="line" smooth="yes"/>
      <point x="376" y="463"/>
      <point x="410" y="454"/>
    </contour>
  </outline>
</glyph>
<glyph name="y.italic" format="2">
  <advance width="487"/>
  <outline>
    <contour>
      <point x="319" y="45" type="line"/>
      <point x="181" y="454" type="line"/>
      <point x="181" y="461"/>
      <point x="221" y="463"/>
      <point x="254" y="463" type="curve" smooth="yes"/>
      <point x="256" y="463" type="line"/>
      <point x="256" y="508" type="line"/>
      <point x="49" y="508" type="line"/>
      <point x="49" y="463" type="line"/>
      <point x="50" y="463" type="line"/>
      <point x="83" y="463"/>
      <point x="103" y="456"/>
      <point x="112" y="428" type="curve" smooth="yes"/>
      <point x="267" y="-14" type="line"/>
      <point x="309" y="8" type="line"/>
    </contour>
    <contour>
      <point x="327" y="17" type="curve" smooth="yes"/>
      <point x="465" y="418" type="line" smooth="yes"/>
      <point x="479" y="455"/>
      <point x="503" y="463"/>
      <point x="528" y="463" type="curve" smooth="yes"/>
      <point x="528" y="463" type="line"/>
      <point x="528" y="508" type="line"/>
      <point x="349" y="508" type="line"/>
      <point x="349" y="463" type="line"/>
      <point x="351" y="463" type="line" smooth="yes"/>
      <point x="384" y="463"/>
      <point x="418" y="454"/>
      <point x="418" y="441" type="curve"/>
      <point x="293" y="72" type="line"/>
      <point x="288" y="54" type="line" smooth="yes"/>
      <point x="231" y="-123"/>
      <point x="178" y="-152"/>
      <point x="128" y="-152" type="curve" smooth="yes"/>
      <point x="100" y="-152"/>
      <point x="77" y="-136"/>
      <point x="72" y="-134" type="curve"/>
      <point x="72" y="-214" type="line"/>
      <point x="84" y="-224"/>
      <point x="101" y="-232"/>
      <point x="129" y="-232" type="curve" smooth="yes"/>
      <point x="211" y="-232"/>
      <point x="268" y="-155"/>
    </contour>
  </outline>
</glyph>
<glyph name="z.italic" format="2">
  <advance width="388"/>
  <outline>
    <contour>
      <point x="139" y="39" type="line"/>
      <point x="404" y="453" type="line"/>
      <point x="404" y="508" type="line"/>
      <point x="86" y="508" type="line"/>
      <point x="86" y="346" type="line"/>
      <point x="130" y="346" type="line"/>
      <point x="137" y="411" type="line" smooth="yes"/>
      <point x="142" y="447"/>
      <point x="169" y="454"/>
      <point x="240" y="454" type="curve" smooth="yes"/>
      <point x="349" y="454" type="line"/>
      <point x="336" y="467" type="line"/>
      <point x="72" y="60" type="line"/>
      <point x="72" y="0" type="line"/>
      <point x="414" y="0" type="line"/>
      <point x="414" y="180" type="line"/>
      <point x="369" y="180" type="line"/>
      <point x="361" y="100" type="line" smooth="yes"/>
      <point x="357" y="62"/>
      <point x="329" y="55"/>
      <point x="258" y="55" type="curve" smooth="yes"/>
      <point x="129" y="55" type="line"/>
    </contour>
  </outline>
</glyph>
